{"title":"Killing Spree - S01E04 - The Miami Murders","uid":15884897,"size":369097406,"categoryP":"video","categoryS":"tv_shows","magnet":"?xt=urn:btih:ba7949915aa11d05e2bc5f3e2439b2656c265b58&amp;dn=Killing+Spree+-+S01E04+-+The+Miami+Murders&amp;tr=udp%3A%2F%2Ftracker.leechers-paradise.org%3A6969&amp;tr=udp%3A%2F%2Fzer0day.ch%3A1337&amp;tr=udp%3A%2F%2Fopen.demonii.com%3A1337&amp;tr=udp%3A%2F%2Ftracker.coppersurfer.tk%3A6969&amp;tr=udp%3A%2F%2Fexodus.desync.com%3A6969","seeders":15,"leechers":2,"uploader":"Bullrout","files":1,"time":1474641765,"description":"Killing Spree - S01E04 - The Miami Murders\r\n\r\nDuring a three-month period in 1997, Andrew Cunanan murdered fashion designer Gianni Versace as well as another five people across three states- a killing spree that ended with his suicide. We draw on the testimonies' of eyewitness' to go inside the mind of this killer.\r\n\r\nComplete name : Killing Spree - S01E04 - The Miami Murders.mp4\r\nFormat : MPEG-4\r\nFormat profile : Base Media / Version 2\r\nCodec ID : mp42 (mp42/isom/avc1)\r\nFile size : 352 MiB\r\nDuration : 44 min 37 s\r\nOverall bit rate mode : Variable\r\nOverall bit rate : 1 103 kb/s\r\n\r\nVideo\r\nID : 2\r\nFormat : AVC\r\nFormat/Info : Advanced Video Codec\r\nFormat profile :   \r\nFormat settings, CABAC : Yes\r\nFormat settings, ReFrames : 3 frames\r\nCodec ID : avc1\r\nCodec ID/Info : Advanced Video Coding\r\nDuration : 44 min 37 s\r\nBit rate mode : Variable\r\nBit rate : 971 kb/s\r\nMaximum bit rate : 1 000 kb/s\r\nWidth : 720 pixels\r\nHeight : 404 pixels\r\nDisplay aspect ratio : 16:9\r\nOriginal display aspect ratio : 16:9\r\nFrame rate mode : Constant\r\nFrame rate : 25.000 FPS\r\nStandard : PAL\r\nColor space : YUV\r\nChroma subsampling : 4:2:0\r\nBit depth : 8 bits\r\nScan type : Progressive\r\nBits/(Pixel*Frame) : 0.134\r\nStream size : 310 MiB (88%)\r\nWriting library : x264 core 112\r\nColor range : Limited\r\nColor primaries : BT.601 PAL\r\nTransfer characteristics : BT.470 System B, BT.470 System G\r\nMatrix coefficients : BT.601\r\n\r\nAudio\r\nID : 1\r\nFormat : AAC\r\nFormat/Info : Advanced Audio Codec\r\nFormat profile : LC\r\nCodec ID : 40\r\nDuration : 44 min 37 s\r\nBit rate mode : Variable\r\nBit rate : 128 kb/s\r\nMaximum bit rate : 576 kb/s\r\nChannel(s) : 2 channels\r\nChannel positions : Front: L R\r\nSampling rate : 48.0 kHz\r\nFrame rate : 46.875 FPS (1024 spf)\r\nCompression mode : Lossy\r\nStream size : 40.9 MiB (12%)","torrent":{"xt":"urn:btih:ba7949915aa11d05e2bc5f3e2439b2656c265b58","amp;dn":"Killing+Spree+-+S01E04+-+The+Miami+Murders","amp;tr":["udp%3A%2F%2Ftracker.leechers-paradise.org%3A6969","udp%3A%2F%2Fzer0day.ch%3A1337","udp%3A%2F%2Fopen.demonii.com%3A1337","udp%3A%2F%2Ftracker.coppersurfer.tk%3A6969","udp%3A%2F%2Fexodus.desync.com%3A6969"],"infoHash":"ba7949915aa11d05e2bc5f3e2439b2656c265b58","infoHashBuffer":{"type":"Buffer","data":[186,121,73,145,90,161,29,5,226,188,95,62,36,57,178,101,108,38,91,88]},"announce":[],"urlList":[]}}